
<global>
amp_veltrack=0
ampeg_attack=0.01
ampeg_decay=5
ampeg_release=1.50
ampeg_sustain=0
</global>

<group>
group_label=PP
xf_cccurve=gain
xfin_hicc1=42
xfout_hicc1=85
xfout_locc1=42

<region>
end=106879
fade_out=104379
hikey=G#2
hivel=127
lokey=G2
lovel=1
offset=15627
pitch_keycenter=G#2
sample=Basses_tenuto_eighth_PP_G#3.opus
</region>

<region>
end=98403
fade_out=95903
hikey=G#1
hivel=127
lokey=G1
lovel=1
offset=11411
pitch_keycenter=G#1
sample=Basses_tenuto_eighth_PP_G#2.opus
</region>

<region>
end=100071
fade_out=97571
hikey=F#3
hivel=127
lokey=F3
lovel=1
offset=11819
pitch_keycenter=F#3
sample=Basses_tenuto_eighth_PP_F#4.opus
</region>

<region>
end=107514
fade_out=105014
hikey=F#2
hivel=127
lokey=F2
lovel=1
offset=13527
pitch_keycenter=F#2
sample=Basses_tenuto_eighth_PP_F#3.opus
</region>

<region>
end=100499
fade_out=97999
hikey=F#1
hivel=127
lokey=F1
lovel=1
offset=11372
pitch_keycenter=F#1
sample=Basses_tenuto_eighth_PP_F#2.opus
</region>

<region>
end=102991
fade_out=100491
hikey=E3
hivel=127
lokey=D#3
lovel=1
offset=14378
pitch_keycenter=E3
sample=Basses_tenuto_eighth_PP_E4.opus
</region>

<region>
end=101239
fade_out=98739
hikey=E2
hivel=127
lokey=D#2
lovel=1
offset=12694
pitch_keycenter=E2
sample=Basses_tenuto_eighth_PP_E3.opus
</region>

<region>
end=103705
fade_out=101205
hikey=E1
hivel=127
lokey=D#1
lovel=1
offset=12354
pitch_keycenter=E1
sample=Basses_tenuto_eighth_PP_E2.opus
</region>

<region>
end=102268
fade_out=99768
hikey=D3
hivel=127
lokey=C#3
lovel=1
offset=11246
pitch_keycenter=D3
sample=Basses_tenuto_eighth_PP_D4.opus
</region>

<region>
end=102751
fade_out=100251
hikey=D2
hivel=127
lokey=C#2
lovel=1
offset=16220
pitch_keycenter=D2
sample=Basses_tenuto_eighth_PP_D3.opus
</region>

<region>
end=104353
fade_out=101853
hikey=D1
hivel=127
lokey=C#1
lovel=1
offset=11814
pitch_keycenter=D1
sample=Basses_tenuto_eighth_PP_D2.opus
</region>

<region>
end=98661
fade_out=96161
hikey=C3
hivel=127
lokey=B2
lovel=1
offset=12581
pitch_keycenter=C3
sample=Basses_tenuto_eighth_PP_C4.opus
</region>

<region>
end=99371
fade_out=96871
hikey=C2
hivel=127
lokey=B1
lovel=1
offset=8564
pitch_keycenter=C2
sample=Basses_tenuto_eighth_PP_C3.opus
</region>

<region>
end=99018
fade_out=96518
hivel=127
key=C1
lovel=1
offset=7523
sample=Basses_tenuto_eighth_PP_C2.opus
</region>

<region>
end=104864
fade_out=102364
hikey=A#2
hivel=127
lokey=A2
lovel=1
offset=11833
pitch_keycenter=A#2
sample=Basses_tenuto_eighth_PP_A#3.opus
</region>

<region>
end=102507
fade_out=100007
hikey=A#1
hivel=127
lokey=A1
lovel=1
offset=14936
pitch_keycenter=A#1
sample=Basses_tenuto_eighth_PP_A#2.opus
</region>
</group>

<group>
group_label=MF
xf_cccurve=gain
xfin_hicc1=85
xfin_locc1=42
xfout_hicc1=127
xfout_locc1=85

<region>
end=105756
fade_out=103256
hikey=G#2
hivel=127
lokey=G2
lovel=1
offset=14610
pitch_keycenter=G#2
sample=Basses_tenuto_eighth_MF_G#3.opus
</region>

<region>
end=86520
fade_out=84020
hikey=G#1
hivel=127
lokey=G1
lovel=1
pitch_keycenter=G#1
sample=Basses_tenuto_eighth_MF_G#2.opus
</region>

<region>
end=104021
fade_out=101521
hikey=F#3
hivel=127
lokey=F3
lovel=1
offset=11603
pitch_keycenter=F#3
sample=Basses_tenuto_eighth_MF_F#4.opus
</region>

<region>
end=107398
fade_out=104898
hikey=F#2
hivel=127
lokey=F2
lovel=1
offset=11250
pitch_keycenter=F#2
sample=Basses_tenuto_eighth_MF_F#3.opus
</region>

<region>
end=107856
fade_out=105356
hikey=F#1
hivel=127
lokey=F1
lovel=1
offset=10498
pitch_keycenter=F#1
sample=Basses_tenuto_eighth_MF_F#2.opus
</region>

<region>
end=91362
fade_out=88862
hikey=E3
hivel=127
lokey=D#3
lovel=1
offset=966
pitch_keycenter=E3
sample=Basses_tenuto_eighth_MF_E4.opus
</region>

<region>
end=103017
fade_out=100517
hikey=E2
hivel=127
lokey=D#2
lovel=1
offset=10709
pitch_keycenter=E2
sample=Basses_tenuto_eighth_MF_E3.opus
</region>

<region>
end=104299
fade_out=101799
hikey=E1
hivel=127
lokey=D#1
lovel=1
offset=11853
pitch_keycenter=E1
sample=Basses_tenuto_eighth_MF_E2.opus
</region>

<region>
end=101135
fade_out=98635
hikey=D3
hivel=127
lokey=C#3
lovel=1
offset=14626
pitch_keycenter=D3
sample=Basses_tenuto_eighth_MF_D4.opus
</region>

<region>
end=87227
fade_out=84727
hikey=D2
hivel=127
lokey=C#2
lovel=1
pitch_keycenter=D2
sample=Basses_tenuto_eighth_MF_D3.opus
</region>

<region>
end=102759
fade_out=100259
hikey=D1
hivel=127
lokey=C#1
lovel=1
offset=12427
pitch_keycenter=D1
sample=Basses_tenuto_eighth_MF_D2.opus
</region>

<region>
end=100781
fade_out=98281
hikey=C3
hivel=127
lokey=B2
lovel=1
offset=9584
pitch_keycenter=C3
sample=Basses_tenuto_eighth_MF_C4.opus
</region>

<region>
end=89856
fade_out=87356
hikey=C2
hivel=127
lokey=B1
lovel=1
pitch_keycenter=C2
sample=Basses_tenuto_eighth_MF_C3.opus
</region>

<region>
end=95970
fade_out=93470
hivel=127
key=C1
lovel=1
offset=2847
sample=Basses_tenuto_eighth_MF_C2.opus
</region>

<region>
end=90598
fade_out=88098
hikey=A#2
hivel=127
lokey=A2
lovel=1
offset=19
pitch_keycenter=A#2
sample=Basses_tenuto_eighth_MF_A#3.opus
</region>

<region>
end=92029
fade_out=89529
hikey=A#1
hivel=127
lokey=A1
lovel=1
offset=3757
pitch_keycenter=A#1
sample=Basses_tenuto_eighth_MF_A#2.opus
</region>
</group>

<group>
group_label=FF
xf_cccurve=gain
xfin_hicc1=127
xfin_locc1=85
xfout_hicc1=127
xfout_locc1=127

<region>
end=95305
fade_out=92805
hikey=G#2
hivel=127
lokey=G2
lovel=1
pitch_keycenter=G#2
sample=Basses_tenuto_eighth_FF_G#3.opus
</region>

<region>
end=91135
fade_out=88635
hikey=G#1
hivel=127
lokey=G1
lovel=1
pitch_keycenter=G#1
sample=Basses_tenuto_eighth_FF_G#2.opus
</region>

<region>
end=93986
fade_out=91486
hikey=F#3
hivel=127
lokey=F3
lovel=1
pitch_keycenter=F#3
sample=Basses_tenuto_eighth_FF_F#4.opus
</region>

<region>
end=95023
fade_out=92523
hikey=F#2
hivel=127
lokey=F2
lovel=1
pitch_keycenter=F#2
sample=Basses_tenuto_eighth_FF_F#3.opus
</region>

<region>
end=95955
fade_out=93455
hikey=F#1
hivel=127
lokey=F1
lovel=1
pitch_keycenter=F#1
sample=Basses_tenuto_eighth_FF_F#2.opus
</region>

<region>
end=93399
fade_out=90899
hikey=E3
hivel=127
lokey=D#3
lovel=1
pitch_keycenter=E3
sample=Basses_tenuto_eighth_FF_E4.opus
</region>

<region>
end=89960
fade_out=87460
hikey=E2
hivel=127
lokey=D#2
lovel=1
pitch_keycenter=E2
sample=Basses_tenuto_eighth_FF_E3.opus
</region>

<region>
end=94480
fade_out=91980
hikey=E1
hivel=127
lokey=D#1
lovel=1
pitch_keycenter=E1
sample=Basses_tenuto_eighth_FF_E2.opus
</region>

<region>
end=94702
fade_out=92202
hikey=D3
hivel=127
lokey=C#3
lovel=1
pitch_keycenter=D3
sample=Basses_tenuto_eighth_FF_D4.opus
</region>

<region>
end=94472
fade_out=91972
hikey=D2
hivel=127
lokey=C#2
lovel=1
pitch_keycenter=D2
sample=Basses_tenuto_eighth_FF_D3.opus
</region>

<region>
end=92770
fade_out=90270
hikey=D1
hivel=127
lokey=C#1
lovel=1
pitch_keycenter=D1
sample=Basses_tenuto_eighth_FF_D2.opus
</region>

<region>
end=93873
fade_out=91373
hikey=C3
hivel=127
lokey=B2
lovel=1
pitch_keycenter=C3
sample=Basses_tenuto_eighth_FF_C4.opus
</region>

<region>
end=93086
fade_out=90586
hikey=C2
hivel=127
lokey=B1
lovel=1
pitch_keycenter=C2
sample=Basses_tenuto_eighth_FF_C3.opus
</region>

<region>
end=93209
fade_out=90709
hivel=127
key=C1
lovel=1
sample=Basses_tenuto_eighth_FF_C2.opus
</region>

<region>
end=91665
fade_out=89165
hikey=A#2
hivel=127
lokey=A2
lovel=1
pitch_keycenter=A#2
sample=Basses_tenuto_eighth_FF_A#3.opus
</region>

<region>
end=93138
fade_out=90638
hikey=A#1
hivel=127
lokey=A1
lovel=1
pitch_keycenter=A#1
sample=Basses_tenuto_eighth_FF_A#2.opus
</region>
</group>